# Blender v2.71 (sub 5) OBJ File: 'tex_cube.blend'
# www.blender.org
mtllib tex_cube.mtl
o Cube
v 1.000000 -1.000000 -1.000000
v 1.000000 -1.000000 1.000000
v -1.000000 -1.000000 1.000000
v -1.000000 -1.000000 -1.000000
v 1.000000 1.000000 -0.999999
v 0.999999 1.000000 1.000001
v -1.000000 1.000000 1.000000
v -1.000000 1.000000 -1.000000
vt 0.000180 0.500265
vt 0.000037 0.250309
vt 0.249993 0.250165
vt 0.499950 0.250022
vt 0.749906 0.249878
vt 0.750050 0.499835
vt 0.500237 0.749935
vt 0.500093 0.499978
vt 1.000000 0.499691
vt 0.499806 0.000065
vt 0.250137 0.500122
vt 0.750194 0.749791
vt 0.999863 0.249735
vt 0.749763 0.000000
vn 0.000000 -1.000000 0.000000
vn 0.000000 1.000000 0.000000
vn 1.000000 -0.000000 0.000000
vn -0.000000 -0.000000 1.000000
vn -1.000000 -0.000000 -0.000000
vn 0.000000 0.000000 -1.000000
usemtl Material
s off
f 2/1/1 3/2/1 4/3/1
f 8/4/2 7/5/2 6/6/2
f 1/7/3 5/8/3 6/6/3
f 2/9/4 6/6/4 7/5/4
f 7/5/5 8/4/5 4/10/5
f 1/11/6 4/3/6 8/4/6
f 1/11/1 2/1/1 4/3/1
f 5/8/2 8/4/2 6/6/2
f 2/12/3 1/7/3 6/6/3
f 3/13/4 2/9/4 7/5/4
f 3/14/5 7/5/5 4/10/5
f 5/8/6 1/11/6 8/4/6
